<?xml version="1.0" encoding="UTF-8"?>
<svg width="80px" height="80px" viewBox="0 0 80 80" version="1.1" xmlns="http://www.w3.org/2000/svg" xmlns:xlink="http://www.w3.org/1999/xlink">
    <!-- Generator: Sketch 61.2 (89653) - https://sketch.com -->
    <title>Absolute Live Gaming color</title>
    <desc>Created with Sketch.</desc>
    <g id="Absolute-Live-Gaming-color" stroke="none" stroke-width="1" fill="none" fill-rule="evenodd">
        <g id="Group-13" transform="translate(5.500000, 0.000000)">
            <path d="M26.0590717,38.3684951 C25.2714487,38.8298172 24.1800281,39.0661041 22.7848101,39.0661041 C21.6033755,39.0661041 20.6694796,38.7398031 19.9718706,38.0759494 C19.2742616,37.4120956 18.9254571,36.3319269 18.9254571,34.835443 C17.676512,36.3319269 16.2250352,37.4120956 14.559775,38.0759494 C12.8945148,38.7398031 11.1054852,39.0661041 9.17018284,39.0661041 C7.92123769,39.0661041 6.72855134,38.9198312 5.60337553,38.6385373 C4.47819972,38.3572433 3.49929677,37.907173 2.67791842,37.2995781 C1.85654008,36.6919831 1.20393812,35.8931083 0.720112518,34.9142053 C0.23628692,33.9353024 2.55835359e-14,32.742616 2.55835359e-14,31.347398 C2.55835359e-14,29.7721519 0.270042194,28.4894515 0.798874824,27.488045 C1.33895921,26.4866385 2.03656821,25.676512 2.91420534,25.0464135 C3.79184248,24.416315 4.79324895,23.9437412 5.91842475,23.628692 C7.04360056,23.302391 8.19127989,23.0436006 9.37271449,22.8298172 C10.6216596,22.5822785 11.814346,22.3909986 12.9395218,22.2672293 C14.0646976,22.1434599 15.0548523,21.9634318 15.9099859,21.7271449 C16.7651195,21.4908579 17.4514768,21.1533052 17.9465541,20.7032349 C18.4416315,20.2531646 18.7004219,19.6005626 18.7004219,18.745429 C18.7004219,17.7440225 18.5091421,16.9451477 18.137834,16.3375527 C17.766526,15.7299578 17.2827004,15.2686357 16.6863572,14.9423347 C16.1012658,14.6160338 15.4374121,14.4022504 14.7060478,14.3009845 C13.9746835,14.1884669 13.254571,14.1434599 12.5344585,14.1434599 C10.6104079,14.1434599 9.00140647,14.5147679 7.70745429,15.2461322 C6.42475387,15.9774965 5.72714487,17.3614627 5.61462729,19.3980309 L1.05766526,19.3980309 C1.12517581,17.6877637 1.48523207,16.2362869 2.12658228,15.0548523 C2.76793249,13.8734177 3.6230661,12.9170183 4.70323488,12.185654 C5.7721519,11.4542897 6.99859353,10.9254571 8.37130802,10.6104079 C9.7440225,10.2841069 11.2180028,10.1265823 12.7932489,10.1265823 C14.0421941,10.1265823 15.2798875,10.2165963 16.5175809,10.3966245 C17.7552743,10.5766526 18.8691983,10.9367089 19.8706048,11.4992968 C20.8720113,12.0506329 21.6708861,12.8270042 22.278481,13.8284107 C22.8860759,14.8298172 23.1898734,16.1350211 23.1898734,17.7440225 L23.1898734,32 C23.1898734,33.068917 23.257384,33.8565401 23.3811533,34.3628692 C23.5049226,34.8579466 23.9212377,35.116737 24.6413502,35.116737 C25.0351617,35.116737 25.4964838,35.0267229 26.0365682,34.8466948 L26.0365682,38.3684951 L26.0590717,38.3684951 Z M18.6666667,24.1687764 C18.092827,24.5963432 17.350211,24.9113924 16.416315,25.1026723 C15.4824191,25.2939522 14.5147679,25.4627286 13.4908579,25.5864979 C12.466948,25.7102672 11.443038,25.8565401 10.4078762,26.0140647 C9.37271449,26.1715893 8.43881857,26.4303797 7.61744023,26.790436 C6.79606188,27.1504923 6.1209564,27.6568214 5.60337553,28.3206751 C5.08579466,28.9845288 4.82700422,29.8846695 4.82700422,31.021097 C4.82700422,31.7749648 4.98452883,32.4050633 5.27707454,32.9226442 C5.58087201,33.440225 5.97468354,33.8565401 6.45850914,34.1828411 C6.94233474,34.5091421 7.50492264,34.7341772 8.14627286,34.8804501 C8.78762307,35.0267229 9.46272855,35.0942335 10.1828411,35.0942335 C11.6793249,35.0942335 12.9732771,34.8917018 14.0421941,34.4753868 C15.1111111,34.0590717 15.9887482,33.5414909 16.6638537,32.9226442 C17.3389592,32.2925457 17.8452883,31.6174402 18.1603376,30.8860759 C18.4866385,30.1547117 18.6441632,29.4683544 18.6441632,28.8270042 L18.6441632,24.1687764 L18.6666667,24.1687764 L18.6666667,24.1687764 Z" id="Shape" fill="#FF0800" fill-rule="nonzero"></path>
            <path d="M68.2419128,56.5625879 L68.2419128,31.2236287 L63.954993,31.2236287 L63.954993,35.1842475 L63.8987342,35.1842475 C63.0773558,33.6427567 61.9296765,32.4950774 60.466948,31.7299578 C59.0042194,30.9648383 57.395218,30.5822785 55.6399437,30.5822785 C53.2433193,30.5822785 51.2292546,31.0323488 49.5864979,31.9437412 C47.9437412,32.8551336 46.6160338,34.0140647 45.625879,35.4317862 C44.6244726,36.838256 43.9156118,38.4135021 43.488045,40.1462729 C43.0604782,41.8790436 42.8466948,43.5668073 42.8466948,45.209564 C42.8466948,47.0998594 43.1054852,48.9001406 43.6230661,50.5991561 C44.140647,52.2981716 44.9170183,53.7834037 45.95218,55.0436006 C46.9873418,56.3150492 48.2700422,57.3164557 49.8115331,58.0703235 C51.3530239,58.8241913 53.1533052,59.1954993 55.2236287,59.1954993 C57.0126582,59.1954993 58.7004219,58.790436 60.2869198,57.9915612 C61.8734177,57.1926864 63.0661041,55.9324895 63.8537271,54.2109705 L63.9662447,54.2109705 L63.9662447,56.0337553 C63.9662447,57.5752461 63.8199719,58.9817159 63.5161744,60.2644163 C63.2123769,61.5471167 62.7172996,62.649789 62.0421941,63.5611814 C61.3670886,64.4725738 60.5007032,65.1814346 59.4655415,65.6990155 C58.4303797,66.2165963 57.1589311,66.4753868 55.6624473,66.4753868 C54.9085795,66.4753868 54.1209564,66.3966245 53.2995781,66.2390999 C52.4781997,66.0815752 51.7243319,65.8227848 51.0267229,65.4627286 C50.3291139,65.1026723 49.7440225,64.6413502 49.2601969,64.0675105 C48.7763713,63.4936709 48.5175809,62.7960619 48.4838256,61.9746835 L43.9156118,61.9746835 C43.9831224,63.4711674 44.3769339,64.742616 45.0970464,65.7777778 C45.8059072,66.8129395 46.7172996,67.6568214 47.8087201,68.2981716 C48.9001406,68.9395218 50.1153305,69.4008439 51.4542897,69.6933896 C52.7932489,69.9746835 54.1097046,70.1209564 55.3924051,70.1209564 C59.8255977,70.1209564 63.0773558,68.9957806 65.1476793,66.745429 C67.2067511,64.4950774 68.2419128,61.0970464 68.2419128,56.5625879 L68.2419128,56.5625879 Z M55.4824191,55.2236287 C53.9859353,55.2236287 52.7369902,54.9085795 51.7355837,54.2897328 C50.7341772,53.6596343 49.9353024,52.838256 49.3277075,51.8255977 C48.7201125,50.8129395 48.2925457,49.676512 48.045007,48.4275668 C47.7974684,47.1786217 47.673699,45.9296765 47.673699,44.6807314 C47.673699,43.3642757 47.8199719,42.092827 48.1237693,40.8776371 C48.4275668,39.6624473 48.9113924,38.5935302 49.5752461,37.6596343 C50.2390999,36.7257384 51.0829817,35.9943741 52.1181435,35.4317862 C53.1533052,34.8804501 54.4022504,34.5991561 55.8649789,34.5991561 C57.2939522,34.5991561 58.5091421,34.8804501 59.5105485,35.4542897 C60.511955,36.0281294 61.3220816,36.7819972 61.95218,37.7271449 C62.5822785,38.6722925 63.0323488,39.7412096 63.3136428,40.9113924 C63.5949367,42.092827 63.7412096,43.2855134 63.7412096,44.5007032 C63.7412096,45.7834037 63.583685,47.0773558 63.2911392,48.3600563 C62.9873418,49.6427567 62.5147679,50.8016878 61.8734177,51.814346 C61.2320675,52.838256 60.3769339,53.6596343 59.3305204,54.278481 C58.2616034,54.9085795 56.9901547,55.2236287 55.4824191,55.2236287 L55.4824191,55.2236287 Z" id="Shape" fill="#FF0010" fill-rule="nonzero"></path>
            <polygon id="Path" fill="#FF1D00" points="36.7482419 0.0112517581 32.0900141 0.0112517581 32.0900141 79.9774965 36.7482419 79.9774965"></polygon>
            <polygon id="Path" fill="#FF1D00" points="26.1715893 0.0112517581 26.1715893 4.27566807 36.7482419 4.26441632 36.7482419 0"></polygon>
            <polygon id="Path" fill="#FF1D00" points="32.1237693 75.7243319 32.1237693 80 42.7004219 79.9887482 42.6891702 75.7243319"></polygon>
        </g>
    </g>
</svg>