<?xml version="1.0" encoding="UTF-8"?>
<svg width="120px" height="120px" viewBox="0 0 120 120" version="1.1" xmlns="http://www.w3.org/2000/svg" xmlns:xlink="http://www.w3.org/1999/xlink">
    <!-- Generator: Sketch 52.4 (67378) - http://www.bohemiancoding.com/sketch -->
    <title>authentic gaming color</title>
    <desc>Created with Sketch.</desc>
    <g id="authentic-gaming-color" stroke="none" stroke-width="1" fill="none" fill-rule="evenodd">
        <g id="authentic" transform="translate(27.000000, 25.000000)" fill="#77A007">
            <g id="g10" transform="translate(33.000000, 35.000000) scale(-1, 1) rotate(-180.000000) translate(-33.000000, -35.000000) ">
                <path d="M49.1373522,34.2173025 L46.9667709,34.2173025 L43.6374093,34.2032714 L23.1108031,34.2128381 C22.909917,33.3896827 22.909917,33.2761587 22.909917,32.3129053 C22.909917,31.2720559 23.0006737,30.719955 23.2750497,29.7686067 L43.4655822,29.7686067 C42.0979139,25.2129773 37.9068896,21.8965454 32.9479075,21.8965454 C26.8785767,21.8965454 21.9585505,26.8637526 21.9585505,32.9912857 C21.9585505,39.1188188 26.8785767,44.0860259 32.9479075,44.0860259 C37.963323,44.0860259 42.1939349,40.6936987 43.5116975,36.0579222 L49.0213267,36.0579222 C48.8242309,37.1181174 48.5262708,38.1421721 48.1386068,39.1205195 L46.7172425,38.5384432 C46.1299559,39.9942717 45.3047223,41.3812206 44.2358563,42.6406143 C43.167201,43.9000081 41.9361942,44.9359678 40.6011646,45.7453048 L41.4188176,47.1182225 C39.6140008,48.2236998 37.5805023,48.9862666 35.4067625,49.3170594 L35.2155626,47.9479683 C33.6729086,48.1624734 32.0706625,48.1344113 30.4557821,47.8295547 C28.8411123,47.5249106 27.336993,46.9666446 25.9754313,46.2040778 L25.2377958,47.5567994 C23.1832401,46.4460073 21.390847,44.905142 19.9791691,43.053255 L21.2148084,42.0861749 C20.2596516,40.8446389 19.4824286,39.4296279 18.9366247,37.8653776 C18.3906102,36.3013398 18.1174977,34.7069014 18.090755,33.1352103 L16.5935846,33.158808 C16.5931635,33.1031089 16.5925317,33.0471973 16.5925317,32.9912857 C16.5925317,30.7499304 17.0351551,28.6129578 17.836594,26.6641289 L19.1859425,27.2211194 C19.7734398,25.7650782 20.5984628,24.3781294 21.6673287,23.1187356 C22.7361947,21.8593419 23.9672014,20.8233821 25.3020204,20.0142578 L24.581652,18.8003587 C26.4281621,17.688291 28.5100923,16.933165 30.7339484,16.6293713 L30.9228319,18.0146194 C32.4654859,17.8003269 34.067732,17.8281764 35.6824018,18.133033 C37.2970717,18.4378897 38.801191,18.9961557 40.1629633,19.7587224 L40.8395327,18.5252649 C42.7673238,19.5997038 44.4575892,21.0551072 45.8103068,22.7911317 L44.6885872,23.6733876 C45.643744,24.9147111 46.4207565,26.329722 46.9667709,27.8939724 C47.5125748,29.4582227 47.7856874,31.0524486 47.8124301,32.6241396 L49.2984401,32.5965027 C49.3015987,32.7278844 49.3032833,32.8592662 49.3032833,32.9912857 C49.3032833,33.7921189 49.2464287,33.4468699 49.1373522,34.2173025" id="path22"></path>
                <path d="M33.603525,16.6237164 C24.283376,16.3233242 16.6667585,24.0131943 16.9640869,33.4227194 C17.2336197,41.9440361 24.1079691,48.8843076 32.5483462,49.1562124 C41.8684951,49.4566046 49.4851126,41.7667345 49.1877843,32.357422 C48.9182515,23.8361054 42.043902,16.8958339 33.603525,16.6237164 Z M40.3039415,68.7271998 C40.1005285,69.2744111 39.4601776,69.722342 38.8811032,69.722342 L27.2705574,69.722342 C26.691483,69.722342 26.0498686,69.2750489 25.844771,68.7282628 L0.444254009,1.05859605 C0.239156405,0.511809976 0.544907659,0.064516855 1.123982,0.064516855 L16.0706278,0.064516855 C16.6497022,0.064516855 17.4288204,0.430387321 17.8021654,0.877255259 C17.8021654,0.877255259 25.9367912,10.6192739 33.0760409,10.6192739 C40.21508,10.6192739 48.3497058,0.877255259 48.3497058,0.877255259 C48.7228402,0.430387321 49.502169,0.064516855 50.0812433,0.064516855 L64.7716224,0.064516855 C65.3506968,0.064516855 65.6581326,0.512447751 65.4547196,1.05965901 L40.3039415,68.7271998 Z" id="path26" fill-rule="nonzero"></path>
            </g>
        </g>
    </g>
</svg>