<?xml version="1.0" encoding="UTF-8"?>
<svg width="80px" height="80px" viewBox="0 0 80 80" version="1.1" xmlns="http://www.w3.org/2000/svg" xmlns:xlink="http://www.w3.org/1999/xlink">
    <!-- Generator: Sketch 48.2 (47327) - http://www.bohemiancoding.com/sketch -->
    <title>ezugi color</title>
    <desc>Created with Sketch.</desc>
    <defs>
        <linearGradient x1="54.0647384%" y1="139.825962%" x2="44.2982209%" y2="0.949975248%" id="linearGradient-1">
            <stop stop-color="#00619E" offset="0%"></stop>
            <stop stop-color="#28D5FF" offset="100%"></stop>
        </linearGradient>
    </defs>
    <g id="Page-1" stroke="none" stroke-width="1" fill="none" fill-rule="evenodd">
        <g id="ezugi-color">
            <g id="ezugi" transform="translate(9.000000, 5.500000)">
                <polygon id="Shape" fill="url(#linearGradient-1)" points="0 58.9741476 8.81222895 12.8794115 55.2458969 0 53.5512375 68.4642403"></polygon>
                <path d="M24.0641637,16.6076623 C23.7252318,19.6580492 23.3862999,22.3695043 23.047368,25.0809593 C22.7084362,28.1313463 22.7084362,30.8428013 22.3695043,33.5542564 C24.0641637,33.5542564 26.097755,33.5542564 27.7924144,33.2153245 C29.8260057,33.2153245 31.5206651,33.2153245 33.5542564,32.8763926 C36.2657115,32.8763926 38.2993028,32.1985289 39.3160984,31.5206651 C40.6718259,30.1649376 41.3496897,28.1313463 41.6886216,25.4198912 C42.3664854,25.4198912 42.7054172,25.0809593 43.0443491,25.0809593 C43.0443491,28.1313463 42.7054172,31.1817332 42.7054172,33.8931883 C42.3664854,36.9435752 42.3664854,39.6550303 42.0275535,42.7054172 C41.6886216,42.7054172 41.3496897,42.7054172 40.6718259,42.7054172 C40.6718259,40.3328941 40.3328941,38.6382346 39.9939622,37.9603709 C39.6550303,37.2825071 38.9771665,36.6046434 37.9603709,36.2657115 C36.9435752,35.5878477 35.2489158,35.5878477 33.2153245,35.5878477 C31.5206651,35.5878477 29.4870738,35.5878477 27.7924144,35.9267796 C25.7588231,35.9267796 24.0641637,35.9267796 22.0305724,35.9267796 C21.6916405,38.2993028 21.6916405,40.6718259 21.3527086,43.0443491 C21.0137767,45.4168723 21.0137767,47.7893955 20.6748449,50.1619187 C20.335913,52.19551 20.335913,53.2123056 20.6748449,53.5512375 C20.6748449,54.2291013 21.0137767,54.5680331 21.6916405,54.906965 C22.0305724,54.906965 23.047368,55.2458969 24.4030956,55.5848288 C27.4534825,55.9237607 30.5038695,56.2626926 33.2153245,56.6016244 C36.2657115,56.9405563 38.2993028,56.9405563 39.6550303,56.6016244 C41.0107578,56.6016244 42.3664854,55.9237607 43.7222129,54.906965 C45.4168723,53.5512375 47.1115317,51.1787143 48.8061911,48.1283274 C49.4840549,48.1283274 49.8229868,48.1283274 50.5008505,48.1283274 C49.4840549,50.1619187 48.8061911,52.5344418 47.7893955,54.5680331 C47.1115317,56.6016244 46.0947361,58.6352157 45.4168723,61.0077389 C38.6382346,59.9909433 31.859597,58.9741476 25.0809593,57.957352 C18.6412536,56.9405563 11.8626159,56.2626926 5.08397824,55.2458969 C5.08397824,54.906965 5.08397824,54.5680331 5.08397824,54.2291013 C5.76184201,54.2291013 6.43970577,54.2291013 7.11756954,54.5680331 C8.13436519,54.5680331 9.49009272,54.5680331 10.5068884,54.2291013 C11.523684,53.8901694 12.2015478,53.5512375 12.5404797,52.8733737 C12.8794115,52.5344418 13.2183434,51.1787143 13.2183434,49.145123 C13.8962072,44.7390085 14.2351391,40.3328941 14.9130028,35.9267796 C15.2519347,31.5206651 15.9297985,27.4534825 16.2687304,23.047368 C16.6076623,20.335913 16.6076623,18.9801854 15.9297985,18.3023217 C15.2519347,17.9633898 13.8962072,17.6244579 11.8626159,18.3023217 C11.1847521,18.3023217 10.5068884,18.6412536 10.1679565,18.6412536 C10.1679565,18.3023217 10.1679565,17.9633898 10.1679565,17.6244579 C16.6076623,16.2687304 22.7084362,14.574071 29.1481419,13.2183434 C35.2489158,11.8626159 41.6886216,10.1679565 48.1283274,8.81222895 C48.1283274,12.5404797 48.1283274,16.2687304 48.1283274,20.335913 C47.4504636,20.335913 47.1115317,20.335913 46.433668,20.335913 C46.0947361,17.6244579 45.7558042,15.9297985 45.0779404,15.2519347 C44.7390085,14.2351391 43.7222129,13.5572753 42.7054172,13.2183434 C41.6886216,13.2183434 39.9939622,13.2183434 37.2825071,13.8962072 C35.2489158,14.2351391 32.8763926,14.9130028 30.8428013,15.2519347 C28.4702782,15.5908666 26.097755,16.2687304 24.0641637,16.6076623 Z" id="Shape" fill="#145C86"></path>
                <path d="M23.047368,15.9297985 C22.7084362,18.6412536 22.3695043,21.3527086 22.0305724,24.4030956 C21.6916405,27.1145506 21.6916405,29.8260057 21.3527086,32.8763926 C23.047368,32.5374608 25.0809593,32.5374608 26.7756187,32.5374608 C28.80921,32.1985289 30.5038695,32.1985289 32.5374608,32.1985289 C35.2489158,31.859597 37.2825071,31.5206651 38.2993028,30.5038695 C39.6550303,29.4870738 40.3328941,27.4534825 40.6718259,24.4030956 C41.3496897,24.4030956 41.6886216,24.4030956 42.0275535,24.4030956 C42.0275535,27.1145506 41.6886216,30.1649376 41.6886216,33.2153245 C41.3496897,35.9267796 41.3496897,38.9771665 41.0107578,42.0275535 C40.6718259,42.0275535 40.3328941,42.0275535 39.6550303,41.6886216 C39.6550303,39.3160984 39.3160984,37.9603709 38.9771665,37.2825071 C38.6382346,36.2657115 37.9603709,35.5878477 36.9435752,35.2489158 C35.9267796,34.9099839 34.2321202,34.5710521 32.1985289,34.5710521 C30.5038695,34.9099839 28.4702782,34.9099839 26.7756187,34.9099839 C24.7420275,34.9099839 23.047368,34.9099839 21.0137767,35.2489158 C20.6748449,37.621439 20.6748449,39.9939622 20.335913,42.3664854 C19.9969811,44.4000767 19.9969811,46.7725998 19.6580492,49.145123 C19.3191173,51.1787143 19.3191173,52.19551 19.6580492,52.8733737 C19.6580492,53.2123056 19.9969811,53.5512375 20.6748449,53.8901694 C21.0137767,54.2291013 22.0305724,54.5680331 23.3862999,54.5680331 C26.4366869,54.906965 29.4870738,55.2458969 32.1985289,55.5848288 C35.2489158,55.9237607 37.2825071,56.2626926 38.6382346,55.9237607 C39.9939622,55.5848288 41.3496897,54.906965 42.7054172,53.8901694 C44.4000767,52.5344418 46.0947361,50.1619187 47.7893955,47.1115317 C48.4672593,47.1115317 49.145123,47.1115317 49.4840549,47.1115317 C48.8061911,49.4840549 47.7893955,51.5176462 47.1115317,53.5512375 C46.0947361,55.9237607 45.4168723,57.957352 44.4000767,59.9909433 C37.621439,58.9741476 30.8428013,57.957352 24.0641637,57.2794882 C17.6244579,56.2626926 10.8458203,55.2458969 4.06718259,54.2291013 C4.06718259,53.8901694 4.06718259,53.5512375 4.06718259,53.2123056 C4.74504636,53.5512375 5.42291013,53.5512375 6.10077389,53.5512375 C7.11756954,53.5512375 8.47329707,53.5512375 9.49009272,53.2123056 C10.5068884,53.2123056 11.1847521,52.8733737 11.523684,52.19551 C11.8626159,51.5176462 12.2015478,50.1619187 12.2015478,48.1283274 C12.8794115,44.0611448 13.2183434,39.6550303 13.8962072,35.2489158 C14.2351391,30.8428013 14.9130028,26.4366869 15.2519347,22.0305724 C15.5908666,19.6580492 15.5908666,17.9633898 14.9130028,17.6244579 C14.2351391,16.9465941 12.8794115,16.9465941 10.8458203,17.285526 C10.1679565,17.6244579 9.49009272,17.6244579 9.15116084,17.6244579 C9.15116084,17.285526 9.15116084,16.9465941 9.15116084,16.6076623 C15.5908666,15.2519347 21.6916405,13.8962072 28.1313463,12.2015478 C34.5710521,10.8458203 40.6718259,9.49009272 47.1115317,8.13436519 C47.1115317,11.8626159 47.1115317,15.5908666 47.1115317,19.3191173 C46.433668,19.3191173 46.0947361,19.6580492 45.4168723,19.6580492 C45.0779404,16.9465941 44.7390085,15.2519347 44.0611448,14.2351391 C43.7222129,13.2183434 42.7054172,12.8794115 41.6886216,12.5404797 C40.6718259,12.2015478 38.9771665,12.5404797 36.6046434,12.8794115 C34.2321202,13.5572753 31.859597,13.8962072 29.8260057,14.2351391 C27.4534825,14.9130028 25.0809593,15.2519347 23.047368,15.9297985 Z" id="Shape" fill="#FFFFFF"></path>
                <polygon id="Shape" fill="#2967A6" points="53.5512375 68.4642403 55.2458969 0 61.3466708 8.81222895 60.668807 64.3970577"></polygon>
            </g>
        </g>
    </g>
</svg>