<?xml version="1.0" encoding="utf-8"?>
<!-- Generator: Adobe Illustrator 24.3.0, SVG Export Plug-In . SVG Version: 6.00 Build 0)  -->
<svg version="1.1" id="Capa_1" xmlns="http://www.w3.org/2000/svg" xmlns:xlink="http://www.w3.org/1999/xlink" x="0px" y="0px"
	 viewBox="0 0 682 263" style="enable-background:new 0 0 682 263;" xml:space="preserve">
<style type="text/css">
	.st0{fill:#C32126;}
	.st1{fill:#FFFFFF;}
</style>
<g>
	<g>
		<path class="st0" d="M72.6,20.7C25.4,20.7,0,46.6,0,75.3c0,11.2,3.5,22.9,11.7,31.7l18.4-14.9c-3-5.1-5.2-11.9-5.2-19.1
			c0-13.3,7.7-27.6,29.9-32.4L20.3,153.5h26.2l11.5-37.8c8.9,4.9,18.4,7.2,28.7,7.2c34.1,0,54.4-27.1,54.4-52.3
			C141.2,42.6,116.5,20.7,72.6,20.7z M79.8,102.9c-5.4,0-11.4-0.9-16.8-3.5l18.2-59.6c22.4,3,32.4,14.9,32.4,29.7
			C113.5,85.6,102.3,102.9,79.8,102.9z"/>
		<path class="st0" d="M667,108c2.4-4.6,3.7-10.9,0.6-15.6c-3.8-6.1-12.4-5.3-15.9,1.2c-1.9,3.7-1.7,9.6-0.3,13.7
			c0.3,0.6,0.6,1.3,1.1,2c-11,19.3-29.8,28.5-45.7,28.5c-12.2,0-20.3-6.1-22.6-16.6c38.8,1,53.7-18.4,53.7-33.6
			c0-13.5-12.1-25-31.5-25c-28.4,0-47.7,24.6-49.8,49.5c-8.2,13.8-19.1,25-29.2,25c-7.5,0-11.2-5.6-7.5-17.7l11-36h23.3l5.8-19.2
			h-23.1l9.3-30.1l-28,7.7l-6.8,22.4h-10.7l-5.8,19.2h10.5l-6.5,21.8c-9.4,18.9-19.3,31.9-27,31.9c-5.2,0-5.1-5.6-3.1-11.5l7.9-25.7
			c5.8-18.7,0.3-37.3-19.6-37.3c-9.4,0-17.7,4.7-25,12.9l3.5-11.4h-25.5l-12.7,41.5c-9.4,18.7-19.2,31.5-26.8,31.5
			c-5.4,0-5.1-5.6-3.1-11.5l18.7-61.4h-25.5L356,78.4c-4.4-10.1-13.1-15.7-24.1-15.7c-24.3,0-43.5,24.1-47.7,49.8
			c-10.6,16.4-25,25.4-39.4,25.4c-14.7,0-23.1-8.9-23.1-23.3c0-17.1,12.4-33.2,25.4-33.2c2.1,0,3.8,0.3,5.2,1
			c-3.5,2.6-5.6,6.8-5.6,11.4c0,7.9,6.3,14.2,14.2,14.2c10.7,0,16.4-9.8,16.4-19.2c0-12.6-10.1-26.1-32-26.1
			c-29.6,0-48.7,25.1-50.7,49.9c-8.3,15.1-16.3,24.6-24.7,24.6c-6.8,0-7.9-5.9-5.6-13.5l18.2-59.5h-25.5l-16.4,53.5
			c-6.1,20.3-1,37.3,19.4,37.3c14.7,0,26.7-9.1,36.7-23.8c5.3,15.4,19.8,24.4,40.1,24.4c20.2,0,35.8-9,47.5-23
			c3.1,14.5,13.7,22.4,28.2,22.4c11,0,21.2-5.4,29-14.2c1.6,8,6.8,14.2,18.2,14.2c9.6,0,18.3-4.5,26.2-12.2l-3.2,10.6h25.5
			l17.7-58.1c5.1-6.3,10.8-11.4,17.8-11.4c8.9,0,10,7.7,7.2,16.6l-6.1,19.4c-4.5,14.9-4,35,16.4,35c12.5,0,23.5-7.7,33-19.9
			c1.6,11.5,8.9,19.9,24.7,19.9c16.5,0,29.4-9.6,39.8-24.1c5.3,15.6,19.8,24.7,40.1,24.7c26.8,0,48.4-14.6,61.3-36.5
			c21.8,21.5-1.3,43.1-23.8,50.4c-39.2,13.2-111.2,10.6-183.9,10.2c-86.5-0.5-163.7-2.7-258-5.9c0,0-20.6,70.6-26.1,89.2
			c42.6-12.1,440.2-49.2,491.4-87.9C684.3,156.6,691.1,131.1,667,108z M322.9,133.9c-7.7,0-12.6-5.4-12.6-14.9
			c0-15.2,12.2-32.7,24.3-32.7c7.7,0,12.9,5.4,12.9,14.7C347.6,116.4,335.3,133.9,322.9,133.9z M606.1,84.4c6.3,0,8.7,3.7,8.7,7.7
			c0,7.7-9.4,17.1-31,17.5C585.8,95.7,595.1,84.4,606.1,84.4z"/>
		<path class="st0" d="M175.7,55.6c15.6,0,20.1-16.4,17-25.3c-3-8.6-9.4-13.5-13.5-19.5C175,4.8,177.8,0,177.8,0
			c-6.8,3.2-4.8,11.7-2.7,18.7c3.1,10.3-2.1,14.3-5.5,14.3c-3.3,0-4.9-2.1-4.9-5.2s2.1-5.3,2.1-5.3s-8.8,4.4-8.8,15.3
			C158,47.9,165.8,55.6,175.7,55.6z"/>
	</g>
	<g>
		<g>
			<path class="st1" d="M195.4,230.5c-0.4,1.5-0.5,2.3-0.9,3.9c-1.2,5.3-0.7,8.3,2.3,7.9c3.1-0.4,5-4.1,6.2-9.4
				c1.6-7,0.9-9.2-2.8-14.1c-3.7-4.9-5.4-8-3.4-17.6c1.8-8.4,5.2-17.3,12.7-17.1c7.4,0.2,7.4,8,6,15.2c-0.2,1.3-0.4,1.9-0.6,3.1
				c-2.4,0.1-3.6,0.1-6,0.2c0.2-1.2,0.4-1.8,0.6-2.9c1-4.7,1-7.8-1.6-7.8c-2.6,0-3.9,3.4-4.9,7.9c-1.1,5.1-0.9,7.3,2.3,11.2
				c5.2,6.4,6.7,9.7,4.5,20c-1.8,8.7-6.3,17.8-15,19c-8.5,1.2-8.3-6.6-6.3-15.2c0.4-1.5,0.5-2.3,0.9-3.8
				C191.8,230.9,193,230.8,195.4,230.5z"/>
			<path class="st1" d="M226.5,185.5c3.6,0.1,5.4,0.1,8.9,0.2c6.7,0.1,9.6,4.9,8.6,14.6c-0.1,1.4-0.2,2-0.4,3.4
				c-0.9,9-4.3,15.4-13.5,16c-1.3,0.1-1.9,0.1-3.1,0.2c-1.6,9.9-2.5,14.8-4.3,25.6c-2.9,0.4-4.3,0.6-7.2,0.9
				C219.4,226.2,223.1,205.9,226.5,185.5z M228.1,213.5c1-0.1,1.4-0.1,2.4-0.1c5-0.3,6.3-3.9,7-9.6c0.2-1.2,0.2-1.8,0.4-3
				c0.6-4.4,0.4-8.3-3.8-8.2c-1.1,0-1.6,0-2.7,0C230,201.2,229.4,205.3,228.1,213.5z"/>
			<path class="st1" d="M272.6,200c-0.1,10.2-0.2,15.2-0.3,25.3c-0.1,9.7-3.9,15.1-12.3,16.2c-8.3,1.1-11.5-4.1-10.6-14
				c0.9-10.9,1.3-16.1,2.1-26.9c0.8-10.2,4.9-15.3,11.2-15.2C269.3,185.6,272.7,190.7,272.6,200z M257.8,199.9
				c-0.6,11.2-0.9,16.6-1.5,27.8c-0.3,5.3,1.3,7.4,4.4,7c3.3-0.4,4.9-2.7,5.1-8.1c0.3-10.9,0.5-16.2,0.7-27.1
				c0.1-4.9-1.1-7.4-4.1-7.4C259.6,192.2,258.1,194.6,257.8,199.9z"/>
			<path class="st1" d="M287.3,214.1c0,9.2,0,13.8,0,23c-2.4,0.3-3.5,0.5-6,0.8c0-17.1,0-34.2,0-51.3c3.5,0.1,5.2,0.1,8.7,0.2
				c6.7,0.1,10.4,3.2,10.4,11.6c0,0.8,0,1.2,0,2c0,7.1-2.5,9.4-4.5,10.4c2.7,1.1,4.1,3.2,4.1,9.7c0,4.1-0.1,11.9,0.4,14.8
				c-2.3,0.3-3.4,0.4-5.7,0.8c-0.6-2.9-0.5-11.1-0.5-14.7c0-6.2-0.7-7.7-4.9-7.4C288.5,214.1,288.1,214.1,287.3,214.1z M287.3,208.5
				c0.8,0,1.3-0.1,2.1-0.1c3.9-0.2,5.1-2.3,5.1-7.6c0-0.8,0-1.1,0-1.9c0-4.1-0.9-6.6-5-6.6c-0.9,0-1.3,0-2.2,0
				C287.3,198.8,287.3,202,287.3,208.5z"/>
			<path class="st1" d="M313.3,193c-2.8,0-4.3,0-7.1,0c0-2.4,0-3.5,0-5.9c8.1,0.2,12.1,0.2,20.2,0.4c0,2.2,0,3.3,0,5.5
				c-2.8,0-4.3,0-7.1,0c0,13.3,0,26.6,0,40c-2.4,0.3-3.6,0.4-5.9,0.7C313.3,220.1,313.3,206.5,313.3,193z"/>
			<path class="st1" d="M337,218.3c0,1,0,1.6,0,2.6c0,3.6,1.2,5.4,4,5c2.9-0.3,3.8-2.7,3.8-6.2c0-4.7-1.1-6.2-5.8-9.5
				c-4.7-3.4-7.2-5.6-7.2-12.1c0-5.7,1.7-11.2,9.3-11c7.5,0.2,9,5,9,9.8c0,0.8,0,1.2,0,2.1c-2.4,0-3.5,0.1-5.9,0.1c0-0.8,0-1.2,0-2
				c0-3.2-0.6-5.1-3.2-5.1c-2.6,0-3.2,2.1-3.2,5.2c0,3.4,0.7,5,4.6,7.6c6.4,4.3,8.4,6.7,8.4,13.5c0,5.8-2,11.4-9.9,12.4
				c-7.7,1-9.7-3.7-9.7-9.4c0-1,0-1.5,0-2.6C333.5,218.6,334.6,218.5,337,218.3z"/>
			<path class="st1" d="M358.1,228c0-3.4,0-5.1,0-8.5c2.4-0.2,3.6-0.4,5.9-0.6c0,3.4,0,5,0,8.3C361.7,227.5,360.5,227.7,358.1,228z"
				/>
			<path class="st1" d="M390.6,213.4c0,0.5,0,0.8,0,1.3c0,4.2-0.9,9.5-9.7,10.7c-8,1.1-9.5-3.1-9.5-8.7c0-7.7,0-11.6,0-19.3
				c0-5.9,3.1-9.4,9.6-9.3c7.9,0.1,9.4,4.3,9.4,9c0,0.6,0,0.9,0,1.5c-2.4,0.1-3.6,0.1-6,0.2c0-0.8,0-1.2,0-2c0-2.6-0.6-4.3-3.5-4.3
				c-2.7,0-3.5,1.7-3.5,4.5c0,7.7,0,11.7,0,19.5c0,3,0.7,5,3.6,4.6c2.9-0.3,3.5-2.3,3.5-5.3c0-0.7,0-1.1,0-1.8
				C387,213.7,388.2,213.6,390.6,213.4z"/>
			<path class="st1" d="M418.4,196.7c0,6,0,9.1,0,15.1c0,5.7-3.4,8.8-10.5,9.8c-7,1-10-1.7-10-7.7c0-6.6,0-10,0-16.6
				c0-6.2,3.9-9,10.4-8.9C414.9,188.4,418.4,191.1,418.4,196.7z M403.9,196.8c0,6.7,0,10.3,0,17c0,3.2,1.5,4.3,4.2,4
				c2.9-0.3,4.2-1.7,4.2-4.9c0-6.5,0-9.9,0-16.3c0-2.9-1.3-4.3-4.2-4.3C405.4,192.3,403.9,193.7,403.9,196.8z"/>
			<path class="st1" d="M449.2,205.1c0-4.8,0.1-10.5,0.2-13.4c0,0,0,0-0.1,0c-1.1,4.5-3.9,16.8-6,24.6c-2.3,0.3-3.4,0.5-5.7,0.8
				c-1.6-6.6-4.5-19.9-5.5-25c-0.1,0-0.1,0-0.1,0c0.1,3.3,0.3,10,0.3,15.1c0,4.4,0,6.6,0,10.6c-2.2,0.3-3.2,0.5-5.4,0.7
				c0-9.9,0-19.8,0-29.6c3.5,0,5.3,0,8.8,0c2,7.3,4.2,16.6,4.8,20.3c0,0,0,0,0.1,0c0.7-3.9,3.5-13.9,5.6-20.4c3.4,0,5.1-0.1,8.5-0.1
				c0,9.6,0,16.4,0,26.1c-2.3,0.3-3.4,0.5-5.7,0.8C449.2,211.5,449.2,209.4,449.2,205.1z"/>
		</g>
	</g>
</g>
</svg>
